{"title":"Eden.2012.FESTiVAL.DVDRip.XviD-EXViD","uid":7706062,"size":737457193,"categoryP":"video","categoryS":"movies","magnet":"?xt=urn:btih:daeec740f108a70bcc284e1ca56a90af0dcc040e&amp;dn=Eden.2012.FESTiVAL.DVDRip.XviD-EXViD&amp;tr=udp%3A%2F%2Ftracker.openbittorrent.com%3A80&amp;tr=udp%3A%2F%2Fopen.demonii.com%3A1337&amp;tr=udp%3A%2F%2Ftracker.coppersurfer.tk%3A6969&amp;tr=udp%3A%2F%2Fexodus.desync.com%3A6969","seeders":1,"leechers":0,"uploader":"VITTORY","files":-1,"time":1349686014,"description":"Eden.2012.FESTiVAL.DVDRip.XviD-EXViD\n &lt;a href=&quot;\nhttp://imdb.com/title/tt1734433/&quot; rel=&quot;nofollow&quot; target=&quot;_NEW&quot;&gt;\nhttp://imdb.com/title/tt1734433/&lt;/a&gt;\n\nStats\n Format                           : AVI\n Format/Info                      : Audio Video Interleave\n File size                        : 700 MiB\n Duration                         : 1h 34mn\n Overall bit rate                 : 1 041 Kbps\n Writing application              : VirtualDubMod 1.5.10.2 (build 2540/release\n Writing library                  : VirtualDubMod build 2540/release\n\n Video\n ID                               : 0\n Format                           : MPEG-4 Visual\n Format profile                   : Advanced SimpleL5\n Format settings, BVOP            : Yes\n Format settings, QPel            : No\n Format settings, GMC             : No warppoints\n Format settings, Matrix          : Default (H.263\n Muxing mode                      : Packed bitstream\n Codec ID                         : XVID\n Codec ID/Hint                    : XviD\n Duration                         : 1h 34mn\n Bit rate                         : 907 Kbps\n Width                            : 640 pixels\n Height                           : 272 pixels\n Display aspect ratio             : 2.35:1\n Frame rate                       : 25.000 fps\n Color space                      : YUV\n Chroma subsampling               : 4:2:0\n Bit depth                        : 8 bits\n Scan type                        : Progressive\n Bits/(PixelFrame)               : 0.208\n Stream size                      : 610 MiB (87\n Writing library                  : XviD 64\n\n Audio\n ID                               : 1\n Format                           : MPEG Audio\n Format version                   : Version 1\n Format profile                   : Layer 3\n Mode                             : Joint stereo\n Mode extension                   : MS Stereo\n Codec ID                         : 55\n Codec ID/Hint                    : MP3\n Duration                         : 1h 34mn\n Bit rate mode                    : Variable\n Bit rate                         : 128 Kbps\n Channel(s)                       : 2 channels\n Sampling rate                    : 48.0 KHz\n Stream size                      : 82.0 MiB (12\n Alignment                        : Aligned on interleaves\n Interleave, duration             : 24 ms (0.60 video frame\n Interleave, preload duration     : 151 ms\n Writing library                  : LAME3.98r\n Encoding settings                : -m j -V 4 -q 2 -lowpass 17 --abr 128\n\n Release notes\n enjoy\n\n Looking for\n 75TB Archives\n DUTCH/FLEMiSH Archives","torrent":{"xt":"urn:btih:daeec740f108a70bcc284e1ca56a90af0dcc040e","amp;dn":"Eden.2012.FESTiVAL.DVDRip.XviD-EXViD","amp;tr":["udp%3A%2F%2Ftracker.openbittorrent.com%3A80","udp%3A%2F%2Fopen.demonii.com%3A1337","udp%3A%2F%2Ftracker.coppersurfer.tk%3A6969","udp%3A%2F%2Fexodus.desync.com%3A6969"],"infoHash":"daeec740f108a70bcc284e1ca56a90af0dcc040e","infoHashBuffer":{"type":"Buffer","data":[218,238,199,64,241,8,167,11,204,40,78,28,165,106,144,175,13,204,4,14]},"announce":[],"urlList":[]}}